<svg width="24" height="24" viewBox="0 0 24 24" fill="none" xmlns="http://www.w3.org/2000/svg">
<path d="M12 22.75C6.07 22.75 1.25 17.93 1.25 12C1.25 6.07 6.07 1.25 12 1.25C17.93 1.25 22.75 6.07 22.75 12C22.75 17.93 17.93 22.75 12 22.75ZM12 2.75C6.9 2.75 2.75 6.9 2.75 12C2.75 17.1 6.9 21.25 12 21.25C17.1 21.25 21.25 17.1 21.25 12C21.25 6.9 17.1 2.75 12 2.75Z" fill="white"/>
<path d="M9.5 8.71806C9.63486 8.36247 9.83863 8.04373 10.0939 7.78019C10.5614 7.29757 11.2017 7 11.908 7C13.3395 7 14.5 8.22255 14.5 9.73065C14.5 11.0598 13.5986 12.1671 12.4047 12.4112C12.1342 12.4665 11.908 12.6852 11.908 12.9613V14" stroke="white" stroke-width="1.5" stroke-linecap="round"/>
<path d="M12 18.25C12.5523 18.25 13 17.8023 13 17.25C13 16.6977 12.5523 16.25 12 16.25C11.4477 16.25 11 16.6977 11 17.25C11 17.8023 11.4477 18.25 12 18.25Z" fill="white"/>
</svg>
