<svg width="24" height="24" viewBox="0 0 24 24" fill="none" xmlns="http://www.w3.org/2000/svg">
<mask id="path-1-inside-1_119_718" fill="white">
<path d="M12 12.75C8.83 12.75 6.25 10.17 6.25 7C6.25 3.83 8.83 1.25 12 1.25C15.17 1.25 17.75 3.83 17.75 7C17.75 10.17 15.17 12.75 12 12.75ZM12 2.75C9.66 2.75 7.75 4.66 7.75 7C7.75 9.34 9.66 11.25 12 11.25C14.34 11.25 16.25 9.34 16.25 7C16.25 4.66 14.34 2.75 12 2.75Z"/>
</mask>
<path d="M12 12.75C8.83 12.75 6.25 10.17 6.25 7C6.25 3.83 8.83 1.25 12 1.25C15.17 1.25 17.75 3.83 17.75 7C17.75 10.17 15.17 12.75 12 12.75ZM12 2.75C9.66 2.75 7.75 4.66 7.75 7C7.75 9.34 9.66 11.25 12 11.25C14.34 11.25 16.25 9.34 16.25 7C16.25 4.66 14.34 2.75 12 2.75Z" fill="#1F2432"/>
<path d="M12 9.75C10.4869 9.75 9.25 8.51315 9.25 7H3.25C3.25 11.8269 7.17315 15.75 12 15.75V9.75ZM9.25 7C9.25 5.48685 10.4869 4.25 12 4.25V-1.75C7.17315 -1.75 3.25 2.17315 3.25 7H9.25ZM12 4.25C13.5131 4.25 14.75 5.48685 14.75 7H20.75C20.75 2.17315 16.8269 -1.75 12 -1.75V4.25ZM14.75 7C14.75 8.51315 13.5131 9.75 12 9.75V15.75C16.8269 15.75 20.75 11.8269 20.75 7H14.75ZM12 -0.25C8.00315 -0.25 4.75 3.00315 4.75 7H10.75C10.75 6.31685 11.3169 5.75 12 5.75V-0.25ZM4.75 7C4.75 10.9969 8.00315 14.25 12 14.25V8.25C11.3169 8.25 10.75 7.68315 10.75 7H4.75ZM12 14.25C15.9969 14.25 19.25 10.9969 19.25 7H13.25C13.25 7.68315 12.6831 8.25 12 8.25V14.25ZM19.25 7C19.25 3.00315 15.9969 -0.25 12 -0.25V5.75C12.6831 5.75 13.25 6.31685 13.25 7H19.25Z" fill="#1F2432" mask="url(#path-1-inside-1_119_718)"/>
<path d="M20.5901 22.75C20.1801 22.75 19.8401 22.41 19.8401 22C19.8401 18.55 16.3202 15.75 12.0002 15.75C7.68015 15.75 4.16016 18.55 4.16016 22C4.16016 22.41 3.82016 22.75 3.41016 22.75C3.00016 22.75 2.66016 22.41 2.66016 22C2.66016 17.73 6.85015 14.25 12.0002 14.25C17.1502 14.25 21.3401 17.73 21.3401 22C21.3401 22.41 21.0001 22.75 20.5901 22.75Z" fill="#1F2432"/>
</svg>
